<svg width="136" height="56" viewBox="0 0 136 56" fill="none" xmlns="http://www.w3.org/2000/svg">
<path d="M102.554 43.5918L95.9676 38.3577V8.07031H102.731V19.4207L106.553 8.07031H113.846V38.1813L106.671 43.5918V30.0066L102.554 43.5918Z" fill="white"/>
<path d="M83.6059 20.4205L87.5462 18.0681V8.07031H94.7211V21.185L90.1339 23.7139L94.7211 26.3015V37.5932L87.5462 42.8273V29.7126L83.6059 27.2425V42.4744L76.8427 38.1813V8.07031H83.6059V20.4205Z" fill="white"/>
<path d="M71.5383 40.5925L65.8925 44.7092L57.7178 38.1813V8.07031H64.481V33.4176L68.4213 36.7698V8.07031H75.5962V45.2973L71.5383 40.5925Z" fill="white"/>
<path d="M53.8249 8.07031L56.4713 10.7168V37.5932L46.7676 44.7092L38.593 38.1813V10.8932L41.1218 8.07031H53.8249ZM45.3562 15.0688V33.4176L49.2965 36.7698V15.0688H45.3562Z" fill="white"/>
<path d="M26.643 14.7159V22.7729L30.5833 19.8324V14.7159H26.643ZM34.5824 8.07031L37.3465 10.658V24.0668L26.643 31.8297V43.5918L19.4681 38.1813V10.7756L21.8205 8.07031H34.5824Z" fill="white"/>
<path d="M12.1738 15.0099H7.46893V19.95L12.1738 22.7729V15.0099ZM12.2914 30.1242L7.82179 32.4766V47.8262L8.58632 49.0612L0.529294 55.1187L1.17621 52.2958L1.23502 29.7126H1.17621L7.3513 26.4192L1.17621 22.8905V9.54057L0 8.07031H14.6438L18.6429 10.4815V41.063L18.937 41.357L12.2914 46.3559V30.1242Z" fill="white"/>
<path d="M132.942 6.24725V1.89528L134.059 0.366211H115.945L117.063 1.89528V6.24725H132.942Z" fill="white"/>
<path d="M123.351 44.3448L127.468 30.9361V46.7561L126.821 47.7559L134.525 53.6957L133.937 51.2257V9.47026L135.113 8H127.468V8.70572L123.528 20.7619V8H116.47V38.9343L116 39.346L123.351 45.0506V44.3448Z" fill="white"/>
</svg>
